<svg width="36" height="28" viewBox="0 0 36 28" fill="none" xmlns="http://www.w3.org/2000/svg">
<path d="M35.4127 10.512H28.5051L34.4945 0.67517C34.6257 0.456511 34.5381 0.194243 34.3634 0.0631163C34.1447 -0.0680181 33.8825 0.0195061 33.7513 0.19425L27.6308 10.2497C27.5433 10.3369 27.5433 10.4244 27.5433 10.5119H8.30679C8.30679 10.4244 8.30679 10.3372 8.26318 10.2933L2.14264 0.23786C2.01151 0.0192016 1.74924 -0.0244086 1.53059 0.106726C1.31193 0.23786 1.26832 0.500129 1.39945 0.71878L7.34496 10.5119H0.437318C0.175049 10.5119 0 10.6866 0 10.9492C0 11.2115 0.174744 11.3865 0.437318 11.3865H3.14783L7.43255 27.6938C7.47616 27.8686 7.65121 28 7.86987 28H27.9807C28.1994 28 28.3741 27.8689 28.418 27.6938L29.4235 23.8903C29.4671 23.6717 29.336 23.4094 29.1173 23.3658C28.8987 23.3222 28.6364 23.4533 28.5928 23.672L27.6745 27.1696L8.21946 27.1693L4.06621 11.4303H31.7842L29.336 20.6988C29.2924 20.9175 29.4235 21.1798 29.6422 21.2234C29.8609 21.267 30.1231 21.1358 30.1667 20.9172L32.7025 11.3872H35.413C35.6752 11.3872 35.8503 11.2124 35.8503 10.9498C35.8503 10.6876 35.6752 10.5128 35.413 10.5128L35.4127 10.512Z" fill="black"/>
<path d="M17.4878 15.3211V23.1906C17.4878 23.4529 17.6625 23.6279 17.9251 23.6279C18.1874 23.6279 18.3624 23.4532 18.3624 23.1906V15.3211C18.3624 15.0589 18.1877 14.8838 17.9251 14.8838C17.6628 14.8841 17.4878 15.0589 17.4878 15.3211Z" fill="black"/>
<path d="M12.6786 15.3211V23.1906C12.6786 23.4529 12.8534 23.6279 13.1159 23.6279C13.3782 23.6279 13.5533 23.4532 13.5533 23.1906L13.553 15.3211C13.553 15.0589 13.3782 14.8838 13.1156 14.8838C12.8534 14.8841 12.6786 15.0589 12.6786 15.3211Z" fill="black"/>
<path d="M22.297 15.3211V23.1906C22.297 23.4529 22.4717 23.6279 22.7343 23.6279C22.9966 23.6279 23.1716 23.4532 23.1716 23.1906L23.1713 15.3211C23.1713 15.0589 22.9966 14.8838 22.734 14.8838C22.4717 14.8841 22.297 15.0589 22.297 15.3211Z" fill="black"/>
</svg>
