<svg width="28" height="26" viewBox="0 0 28 26" fill="none" xmlns="http://www.w3.org/2000/svg">
<path d="M7.89008 0C5.53753 0 3.53516 1.12112 2.1572 2.83367C0.77924 4.54586 0 6.84192 0 9.24811C0 13.3105 1.56486 16.2582 4.05819 18.745C6.55152 21.2318 9.96081 23.2943 13.7437 25.813L14.0003 26L14.257 25.813C18.0397 23.2943 21.449 21.2314 23.9425 18.745C26.4351 16.2578 28 13.3102 28 9.24811C28 6.84192 27.2208 4.54621 25.8428 2.83367C24.4648 1.12147 22.4625 0 20.1099 0C17.3486 0 15.1549 1.39281 13.9999 2.45966C12.8449 1.39281 10.6514 0 7.89008 0ZM7.89008 0.996302C10.5488 0.996302 12.8013 2.58377 13.653 3.47162L13.9998 3.82956L14.3467 3.47162C15.1983 2.58372 17.4509 0.996302 20.1095 0.996302C22.1674 0.996302 23.8825 1.95506 25.1033 3.47162C26.3236 4.98818 27.0342 7.06495 27.0342 9.24767C27.0342 13.0516 25.6322 15.6652 23.2625 18.0283C20.9501 20.3344 17.6866 22.3684 13.9994 24.8163C10.3123 22.3684 7.04849 20.3344 4.73629 18.0283C2.36727 15.6652 0.965348 13.0516 0.965348 9.24767C0.965348 7.06495 1.6759 4.98818 2.89625 3.47162C4.11662 1.95506 5.83219 0.996302 7.89008 0.996302Z" fill="black"/>
</svg>
