<svg width="19" height="21" viewBox="0 0 19 21" fill="none" xmlns="http://www.w3.org/2000/svg">
<path d="M0.305914 20.7697C0.437254 20.917 0.615459 21 0.801238 21C0.987018 21 1.16498 20.917 1.29632 20.7697L9.46131 11.6108L17.6263 20.7697C17.8997 21.0764 18.3433 21.0764 18.6167 20.7697C18.8901 20.463 18.8901 19.9654 18.6167 19.6587L10.4517 10.4999L18.6167 1.341C18.8901 1.03431 18.8901 0.53672 18.6167 0.230023C18.3433 -0.0766743 17.8997 -0.0766743 17.6263 0.230023L9.46131 9.38888L1.29632 0.230023C1.0229 -0.0766743 0.579311 -0.0766743 0.305895 0.230023C0.0324788 0.53672 0.0324788 1.03431 0.305895 1.341L8.47089 10.4999L0.305895 19.6587C0.174555 19.806 0.100586 20.0057 0.100586 20.2141C0.100586 20.4225 0.174555 20.6224 0.305895 20.7697L0.305914 20.7697Z" fill="white"/>
</svg>
