<svg width="31" height="38" viewBox="0 0 31 38" fill="none" xmlns="http://www.w3.org/2000/svg">
<path d="M23.2221 33.0945V0.58403C23.2221 0.430083 23.1609 0.282352 23.0521 0.173502C22.9432 0.0646513 22.7955 0.00348516 22.6415 0.00348516H8.77217C8.59774 -0.0156934 8.42358 0.0449526 8.29918 0.168838L0.171553 8.29646C0.135528 8.3343 0.104429 8.37603 0.0785133 8.42138L0.0611488 8.45326C0.0383417 8.49836 0.0217544 8.54604 0.0119057 8.59554C0.00283459 8.63364 -0.00105282 8.67252 0.000242953 8.71165V33.0945C0.000242953 33.2485 0.0614078 33.3962 0.17026 33.5051C0.279111 33.6139 0.426841 33.6751 0.580788 33.6751H22.6415C22.7954 33.6751 22.9432 33.6139 23.052 33.5051C23.1609 33.3962 23.222 33.2485 23.222 33.0945L23.2221 33.0945ZM8.12793 1.98596V8.13091H1.98298L8.12793 1.98596ZM22.061 32.514H1.16139V9.2922H8.70847C8.86242 9.2922 9.01015 9.23103 9.119 9.12218C9.22785 9.01333 9.28902 8.8656 9.28902 8.71165V1.16457H22.061V32.514Z" fill="#57666C"/>
<path d="M7.54721 11.6143H4.06394C3.74335 11.6143 3.4834 11.8742 3.4834 12.1948V15.6781C3.4834 15.832 3.54456 15.9797 3.65342 16.0886C3.76227 16.1974 3.91 16.2586 4.06394 16.2586H7.54721C7.70116 16.2586 7.84889 16.1975 7.95774 16.0886C8.06659 15.9797 8.12776 15.832 8.12776 15.6781V12.1948C8.12776 12.0409 8.06659 11.8931 7.95774 11.7843C7.84889 11.6754 7.70116 11.6143 7.54721 11.6143ZM6.96667 15.0975H4.64449V12.7753H6.96667V15.0975Z" fill="#57666C"/>
<path d="M7.54721 18.5811H4.06394C3.74335 18.5811 3.4834 18.841 3.4834 19.1616V22.6449C3.4834 22.7988 3.54456 22.9465 3.65342 23.0554C3.76227 23.1642 3.91 23.2254 4.06394 23.2254H7.54721C7.70116 23.2254 7.84889 23.1642 7.95774 23.0554C8.06659 22.9465 8.12776 22.7988 8.12776 22.6449V19.1616C8.12776 19.0077 8.06659 18.8599 7.95774 18.7511C7.84889 18.6422 7.70116 18.5811 7.54721 18.5811ZM6.96667 22.0643H4.64449V19.7421H6.96667V22.0643Z" fill="#57666C"/>
<path d="M7.54721 25.5474H4.06394C3.74335 25.5474 3.4834 25.8073 3.4834 26.1279V29.6112C3.4834 29.7651 3.54456 29.9129 3.65342 30.0217C3.76227 30.1306 3.91 30.1917 4.06394 30.1917H7.54721C7.70116 30.1917 7.84889 30.1306 7.95774 30.0217C8.06659 29.9129 8.12776 29.7651 8.12776 29.6112V26.1279C8.12776 25.974 8.06659 25.8262 7.95774 25.7174C7.84889 25.6085 7.70116 25.5474 7.54721 25.5474ZM6.96667 29.0306H4.64449V26.7085H6.96667V29.0306Z" fill="#57666C"/>
<path d="M12.1919 6.97017H19.1584C19.479 6.97017 19.739 6.71022 19.739 6.38963C19.739 6.06903 19.479 5.80908 19.1584 5.80908H12.1919C11.8713 5.80908 11.6113 6.06903 11.6113 6.38963C11.6113 6.71022 11.8713 6.97017 12.1919 6.97017Z" fill="#57666C"/>
<path d="M12.1919 14.517H19.1584C19.479 14.517 19.739 14.2571 19.739 13.9365C19.739 13.6159 19.479 13.356 19.1584 13.356H12.1919C11.8713 13.356 11.6113 13.6159 11.6113 13.9365C11.6113 14.2571 11.8713 14.517 12.1919 14.517Z" fill="#57666C"/>
<path d="M12.1919 21.4838H16.8362C17.1568 21.4838 17.4168 21.2239 17.4168 20.9033C17.4168 20.5827 17.1568 20.3228 16.8362 20.3228H12.1919C11.8713 20.3228 11.6113 20.5827 11.6113 20.9033C11.6113 21.2239 11.8713 21.4838 12.1919 21.4838Z" fill="#57666C"/>
<path d="M19.1584 27.2891H12.1919C11.8713 27.2891 11.6113 27.549 11.6113 27.8696C11.6113 28.1902 11.8713 28.4502 12.1919 28.4502H19.1584C19.479 28.4502 19.739 28.1902 19.739 27.8696C19.739 27.549 19.479 27.2891 19.1584 27.2891Z" fill="#57666C"/>
<path d="M29.608 3.48682H24.9637C24.6431 3.48682 24.3831 3.74677 24.3831 4.06736C24.3831 4.38795 24.6431 4.64791 24.9637 4.64791H29.0275V35.9973H8.12789V35.4168C8.12789 35.0962 7.86793 34.8362 7.54734 34.8362C7.22675 34.8362 6.9668 35.0962 6.9668 35.4168V36.5779C6.9668 36.7318 7.02796 36.8795 7.13681 36.9884C7.24567 37.0972 7.39339 37.1584 7.54734 37.1584H29.608C29.762 37.1584 29.9097 37.0972 30.0186 36.9884C30.1274 36.8795 30.1886 36.7318 30.1886 36.5779V4.06736C30.1886 3.91341 30.1274 3.76568 30.0186 3.65683C29.9097 3.54798 29.762 3.48682 29.608 3.48682Z" fill="#57666C"/>
</svg>
