<svg width="28" height="33" viewBox="0 0 28 33" fill="none" xmlns="http://www.w3.org/2000/svg">
<path d="M2.74995 33.0002C3.25635 33.0002 3.66659 32.5899 3.66659 32.0835V26.4235C4.73285 26.0447 5.49989 25.0288 5.49989 23.8337C5.49989 22.6388 4.73285 21.6226 3.66659 21.2438V0.917136C3.66659 0.410728 3.25635 0.000488281 2.74995 0.000488281C2.24354 0.000488281 1.8333 0.410728 1.8333 0.917136V21.2438C0.767038 21.6226 0 22.6385 0 23.8337C0 25.0286 0.767038 26.0448 1.8333 26.4235V32.083C1.8333 32.5895 2.24354 32.9997 2.74995 32.9997V33.0002ZM0.916648 23.8337C0.916648 22.8229 1.73914 22.0004 2.74995 22.0004C3.76075 22.0004 4.58324 22.8229 4.58324 23.8337C4.58324 24.8445 3.76075 25.667 2.74995 25.667C1.73914 25.667 0.916648 24.8445 0.916648 23.8337Z" fill="#57666C"/>
<path d="M13.749 33.0002C14.2554 33.0002 14.6656 32.5899 14.6656 32.0835V11.7568C15.7319 11.378 16.4989 10.3621 16.4989 9.16697C16.4989 7.97205 15.7319 6.95588 14.6656 6.57711V0.917136C14.6656 0.410728 14.2554 0.000488281 13.749 0.000488281C13.2426 0.000488281 12.8323 0.410728 12.8323 0.917136V6.57764C11.7661 6.95642 10.999 7.97232 10.999 9.1675C10.999 10.3624 11.7661 11.3786 12.8323 11.7574V32.0834C12.8323 32.5898 13.2426 33 13.749 33V33.0002ZM11.9157 9.1673C11.9157 8.1565 12.7382 7.334 13.749 7.334C14.7598 7.334 15.5823 8.1565 15.5823 9.1673C15.5823 10.1781 14.7598 11.0006 13.749 11.0006C12.7382 11.0006 11.9157 10.1781 11.9157 9.1673Z" fill="#57666C"/>
<path d="M24.7499 33C25.2564 33 25.6666 32.5898 25.6666 32.0833V19.0899C26.7329 18.7111 27.4999 17.6952 27.4999 16.5C27.4999 15.3051 26.7329 14.2889 25.6666 13.9101V0.916648C25.6666 0.41024 25.2564 0 24.7499 0C24.2435 0 23.8333 0.41024 23.8333 0.916648V13.9101C22.767 14.2889 22 15.3048 22 16.5C22 17.6949 22.767 18.7111 23.8333 19.0899V32.0827C23.8333 32.5891 24.2435 32.9993 24.7499 32.9993V33ZM22.9166 16.5003C22.9166 15.4895 23.7391 14.667 24.7499 14.667C25.7607 14.667 26.5832 15.4895 26.5832 16.5003C26.5832 17.5111 25.7607 18.3336 24.7499 18.3336C23.7391 18.3336 22.9166 17.5111 22.9166 16.5003Z" fill="#57666C"/>
</svg>
