<svg width="55" height="55" viewBox="0 0 55 55" fill="none" xmlns="http://www.w3.org/2000/svg">
<path d="M27.2854 34.9517H32.9265C34.1647 34.9517 35.1722 33.9442 35.1722 32.7059V31.3761C35.1722 30.9963 34.8648 30.6884 34.4845 30.6884H33.4583L30.7507 21.6105C30.9775 21.4934 31.2106 21.364 31.4503 21.2201C34.0466 19.6624 36.4196 19.4793 37.4846 19.4898V35.9491H35.2873C34.2586 35.9491 33.4223 36.7855 33.4223 37.8141V39.9759C33.4223 40.3557 33.7297 40.6636 34.11 40.6636H42.2342C42.614 40.6636 42.9219 40.3562 42.9219 39.9759V37.8141C42.9219 36.7854 42.0856 35.9491 41.057 35.9491H38.8601V19.4898C39.9242 19.4793 42.2965 19.6625 44.8943 21.2201C45.0631 21.3213 45.2252 21.4081 45.3877 21.4958L42.6461 30.6885H41.979C41.5992 30.6885 41.2914 30.9959 41.2914 31.3762V32.706C41.2914 33.9442 42.2989 34.9517 43.5371 34.9517H49.1781C50.4164 34.9517 51.4234 33.9442 51.4234 32.706V31.3762C51.4234 30.9964 51.116 30.6885 50.7357 30.6885H49.7104L47.201 22.2757C48.0387 22.5384 48.7451 22.6257 49.2904 22.6257C50.1158 22.6257 50.5828 22.4416 50.6236 22.4248C50.9708 22.2819 51.1333 21.8891 50.9962 21.54C50.859 21.1909 50.461 21.0197 50.11 21.1492C50.0932 21.1554 48.4378 21.7429 45.6016 20.0409C42.7224 18.3136 40.115 18.0958 38.8595 18.1117V17.2067C38.8595 16.8269 38.5521 16.519 38.1718 16.519C37.792 16.519 37.4841 16.8264 37.4841 17.2067V18.1117C36.2291 18.0963 33.6218 18.3135 30.742 20.0414C27.9055 21.7428 26.2505 21.1554 26.2437 21.154C25.8951 21.0116 25.4913 21.177 25.346 21.5281C25.2017 21.8791 25.369 22.2805 25.7201 22.4258C25.7608 22.4426 26.2284 22.6267 27.0527 22.6267C27.5404 22.6267 28.1547 22.561 28.8784 22.3591L26.3938 30.6895H25.7263C25.3464 30.6895 25.0386 30.9968 25.0386 31.3771V32.7069C25.0395 33.9442 26.0471 34.9517 27.2853 34.9517L27.2854 34.9517ZM41.5472 37.8146V39.2888H34.7979V37.8146C34.7979 37.5442 35.0175 37.3245 35.288 37.3245H41.0571C41.3275 37.3245 41.5472 37.5442 41.5472 37.8146H41.5472ZM50.0488 32.7059C50.0488 33.186 49.659 33.5768 49.1789 33.5768H43.5379C43.0579 33.5768 42.667 33.186 42.667 32.7059V32.0633H50.0489L50.0488 32.7059ZM44.0813 30.6884L46.1784 23.6562L48.2764 30.6884H44.0813ZM33.7976 32.7059C33.7976 33.186 33.4068 33.5768 32.9267 33.5768H27.2857C26.8057 33.5768 26.4148 33.186 26.4148 32.7059V32.0633H33.7972L33.7976 32.7059ZM29.9271 23.6572L32.0242 30.6884H27.8296L29.9271 23.6572Z" fill="#57666C"/>
<path d="M54.3123 11.5904H44.302V2.38867C44.302 1.07138 43.2307 0 41.9134 0H2.38867C1.07138 0 0 1.07134 0 2.38867V52.6113C0 53.9285 1.07133 54.9999 2.38867 54.9999H41.9134C43.2307 54.9999 44.302 53.9286 44.302 52.6113V45.5944H54.3123C54.6921 45.5944 55 45.287 55 44.9067V12.279C55 11.8992 54.6926 11.5914 54.3123 11.5914V11.5904ZM42.9272 2.38867V11.5904H39.9851V4.47803C39.9851 4.09822 39.6777 3.79034 39.2974 3.79034H33.1514V1.37479H41.9129C42.4726 1.37479 42.9272 1.82941 42.9272 2.38857L42.9272 2.38867ZM22.1514 11.5904C21.7716 11.5904 21.4637 11.8978 21.4637 12.2781L21.4642 15.9035H10.8285C10.4487 15.9035 10.1409 16.2109 10.1409 16.5912C10.1409 16.971 10.4482 17.2789 10.8285 17.2789H21.4637L21.4642 21.661H10.8285C10.4487 21.661 10.1408 21.9684 10.1408 22.3487C10.1408 22.7285 10.4482 23.0364 10.8285 23.0364H21.4637V27.4191H10.8285C10.4487 27.4191 10.1408 27.7265 10.1408 28.1068C10.1408 28.4866 10.4482 28.7944 10.8285 28.7944H21.4637V33.1771L10.8285 33.1766C10.4487 33.1766 10.1408 33.484 10.1408 33.8643C10.1408 34.2441 10.4482 34.552 10.8285 34.552H21.4637V38.9346H10.8285C10.4487 38.9346 10.1408 39.242 10.1408 39.6223C10.1408 40.0021 10.4482 40.31 10.8285 40.31H21.4637V44.907C21.4637 45.2868 21.7711 45.5947 22.1514 45.5947H38.6107V49.376L5.69328 49.3751V5.16559H11.1516V6.06428C11.1516 7.77491 12.5619 9.16659 14.2955 9.16659H30.0084C31.742 9.16659 33.1524 7.77491 33.1524 6.06428V5.16607H38.6107V11.5912L22.1514 11.5904ZM31.777 5.16528V6.06397C31.777 7.01685 30.9834 7.7913 30.008 7.7913H14.2951C13.3196 7.7913 12.526 7.01633 12.526 6.06397V5.16576L31.777 5.16528ZM12.526 3.79042V1.37486H31.777V3.79042H12.526ZM42.9279 52.611C42.9279 53.1702 42.4733 53.6248 41.9141 53.6248H2.38943C1.83027 53.6248 1.37565 53.1702 1.37565 52.611V2.38842C1.37565 1.82926 1.83027 1.37464 2.38943 1.37464H11.1509V3.7902H5.00497C4.62516 3.7902 4.31728 4.09759 4.31728 4.47789V50.0624C4.31728 50.4422 4.62468 50.75 5.00497 50.75H39.2974C39.6772 50.75 39.9851 50.4427 39.9851 50.0624V45.5939H42.9272L42.9279 52.611ZM53.6259 44.2193H22.8397V12.9666H53.6259V44.2193Z" fill="#57666C"/>
</svg>
