<svg width="44" height="44" viewBox="0 0 44 44" fill="none" xmlns="http://www.w3.org/2000/svg">
<path d="M24.1714 13.0007C24.1714 14.1999 23.1994 15.1723 22.0002 15.1723C20.8011 15.1723 19.8291 14.1999 19.8291 13.0007C19.8291 11.802 20.8011 10.8296 22.0002 10.8296C23.1994 10.8296 24.1714 11.802 24.1714 13.0007Z" fill="#57666C"/>
<path d="M22 2.19967C32.9174 2.19967 41.7993 11.0819 41.7993 21.999C41.7993 32.9161 32.9171 41.7994 22 41.7994C11.0829 41.7994 2.19956 32.9176 2.19956 22.0001C2.19956 11.0819 11.0823 2.19967 22 2.19967ZM22 0C9.8499 0 0 9.84946 0 22C0 34.1501 9.84946 44 22 44C34.1501 44 44 34.1505 44 22C44 9.8499 34.1497 0 22 0Z" fill="#57666C"/>
<path d="M20.46 18.1328H23.5396V33.1714H20.46V18.1328Z" fill="#57666C"/>
</svg>
