<svg width="55" height="54" viewBox="0 0 55 54" fill="none" xmlns="http://www.w3.org/2000/svg">
<path d="M25.8733 0H28.7232V2.84987H25.8733V0Z" fill="#6D992F"/>
<path d="M25.8733 51.1318H28.7232V53.9817H25.8733V51.1318Z" fill="#6D992F"/>
<path d="M7.15308 42.9175H10.003V45.7674H7.15308V42.9175Z" fill="#6D992F"/>
<path d="M43.8115 42.9175H46.6614V45.7674H43.8115V42.9175Z" fill="#6D992F"/>
<path d="M7.15308 7.82373H10.003V10.6736H7.15308V7.82373Z" fill="#6D992F"/>
<path d="M43.8115 7.82373H46.6614V10.6736H43.8115V7.82373Z" fill="#6D992F"/>
<path d="M0 25.3145H2.84987V28.1643H0V25.3145Z" fill="#6D992F"/>
<path d="M51.8025 25.3145H54.6524V28.1643H51.8025V25.3145Z" fill="#6D992F"/>
<path d="M5.19699 12.6293C3.07338 15.8704 1.73242 19.4468 1.22918 23.3027L1.17383 23.6379H2.85038L2.90612 23.3584C3.4651 19.6144 4.86219 16.038 6.9854 12.9085L7.32063 12.4614H5.36457L5.19699 12.6293Z" fill="#6D992F"/>
<path d="M2.79395 30.1203L2.7382 29.8408H1.11743L1.17317 30.1761C1.67602 34.1439 2.96159 37.776 5.0848 41.1289L5.19667 41.2408H7.15274L6.81751 40.7937C4.6939 37.6082 3.29685 33.9203 2.79401 30.1202L2.79395 30.1203Z" fill="#6D992F"/>
<path d="M51.7466 23.4143L51.8024 23.6938H53.4789L53.4232 23.3585C52.8642 19.5026 51.5233 15.9263 49.4554 12.6851L49.3435 12.5732H47.3875L47.7227 13.0203C49.791 16.0939 51.1881 19.6704 51.7466 23.4144L51.7466 23.4143Z" fill="#6D992F"/>
<path d="M51.8583 29.8408L51.8026 30.1203C51.2997 33.9201 49.9027 37.6646 47.7791 40.7937L47.4438 41.2966H49.3999L49.5118 41.1847C51.6354 37.8878 52.9764 34.1995 53.4234 30.2319L53.4792 29.8966L51.8583 29.8408Z" fill="#6D992F"/>
<path d="M40.7936 6.31478L40.8494 6.37052H43.6435L42.9169 5.81154C39.3966 3.12931 35.1493 1.39707 30.7346 0.838456L30.3994 0.782715V2.45927L30.6789 2.51462C34.311 3.01786 37.7199 4.24686 40.7935 6.31479L40.7936 6.31478Z" fill="#6D992F"/>
<path d="M11.6233 5.81185L10.8967 6.37083H13.6908L13.7466 6.31509C16.8762 4.24676 20.285 3.01776 23.9729 2.51452L24.2524 2.45878V0.782227L23.9172 0.837968C19.4465 1.39695 15.1997 3.12922 11.6232 5.81185L11.6233 5.81185Z" fill="#6D992F"/>
<path d="M41.0731 47.5553C37.9439 49.6228 34.3674 51.0198 30.6232 51.5231L30.3438 51.5788V53.2554L30.679 53.1996C35.2053 52.5849 39.5083 50.8526 43.1406 48.0585L43.8672 47.4995L41.0731 47.5553Z" fill="#6D992F"/>
<path d="M13.5235 47.5553L13.4116 47.4995H10.6733L11.3999 48.0585C15.032 50.8526 19.3908 52.5848 23.9175 53.1996L24.2527 53.2554V51.5788L23.9732 51.4673C20.2291 50.9641 16.597 49.567 13.5233 47.5553L13.5235 47.5553Z" fill="#6D992F"/>
<path d="M35.4849 40.1792H18.888C18.4966 40.1792 18.2175 40.5144 18.2175 40.8497C18.2175 41.241 18.5528 41.5201 18.888 41.5201H35.4849C35.8763 41.5201 36.1554 41.1849 36.1554 40.8497C36.2111 40.5144 35.8759 40.1792 35.4849 40.1792Z" fill="#6D992F"/>
<path d="M16.6529 19.3909C17.6585 19.3909 18.497 18.5528 18.497 17.5468C18.497 17.4349 18.497 17.2673 18.4412 17.1554H26.6002V37.8317L21.7381 37.8321C21.3468 37.8321 21.0677 38.1673 21.0677 38.5025C21.0677 38.8939 21.4029 39.173 21.7381 39.173H32.8027C33.1941 39.173 33.4732 38.8378 33.4732 38.5025C33.4732 38.1112 33.138 37.8321 32.8027 37.8321H27.9969V17.1558H36.1559C36.1559 17.2677 36.1001 17.4353 36.1001 17.5471C36.1001 18.5528 36.9382 19.3912 37.9442 19.3912C38.9499 19.3912 39.7883 18.5532 39.7883 17.5471C39.7883 16.5972 39.006 15.8149 38.1679 15.7587H38.0561H27.9973V12.6294C27.9973 12.2381 27.6621 11.959 27.3269 11.959C26.9355 11.959 26.6564 12.2942 26.6564 12.6294L26.656 15.8145H16.6532H16.5413C15.5914 15.8703 14.9209 16.6526 14.9209 17.6029C14.8091 18.6086 15.6475 19.3909 16.6532 19.3909L16.6529 19.3909Z" fill="#6D992F"/>
<path d="M21.1235 29.2265V29.1707V29.0035L17.3237 20.7889C17.2118 20.509 16.9323 20.2856 16.709 20.2856C16.4295 20.2856 16.2061 20.3975 16.0942 20.677L12.1826 28.8916V29.1146C12.1826 31.0707 14.1387 32.691 16.5414 32.8587H16.5971H16.7648H16.8205C19.1675 32.8029 21.1235 31.1825 21.1235 29.2266L21.1235 29.2265ZM16.6528 22.6326L19.2793 28.5003H13.8029L16.6528 22.6326Z" fill="#6D992F"/>
<path d="M42.4142 29.2264V29.0035L38.5583 20.7888C38.4464 20.5093 38.1669 20.3975 37.9436 20.3975C37.7202 20.3975 37.4407 20.5651 37.3288 20.7888L33.4729 29.0035V29.1707L33.4733 29.2264C33.4733 31.1825 35.4294 32.8029 37.8321 32.9705H37.8878H38.0554H38.1112C40.4585 32.8029 42.4142 31.1825 42.4142 29.2264H42.4142ZM37.8321 22.6326L40.5704 28.5003H35.0941L37.8321 22.6326Z" fill="#6D992F"/>
</svg>
