<svg width="31" height="31" viewBox="0 0 31 31" fill="none" xmlns="http://www.w3.org/2000/svg">
<path d="M29.019 20.5904L22.313 18.4206C21.106 18.0304 19.7894 18.3952 18.9581 19.3506L17.5832 20.9224C14.5346 18.9205 12.073 16.4589 10.0711 13.4103L11.6429 12.0354C12.5983 11.2003 12.963 9.88393 12.5728 8.68046L10.4031 1.97451C9.98361 0.683593 8.70359 -0.140553 7.35445 0.0199005L4.45536 0.362791C3.48541 0.475733 2.59185 0.986253 2.00473 1.75953C-0.146733 4.59299 -0.577104 8.30854 0.764933 12.5061C1.932 16.1564 4.3933 19.9857 7.70466 23.2931C11.0123 26.6004 14.8411 29.062 18.4916 30.2289C20.0888 30.7394 21.6204 30.9948 23.0573 30.9948C25.3948 30.9948 27.4879 30.3238 29.2421 28.9891C30.0151 28.402 30.5221 27.5087 30.6389 26.5385L30.9817 23.6394C31.1346 22.2902 30.314 21.0102 29.0195 20.5908L29.019 20.5904ZM29.5112 23.4676L29.1683 26.3667C29.0991 26.9429 28.7999 27.4679 28.3476 27.8143C25.2736 30.1518 21.5355 29.6522 18.9425 28.8244C15.5146 27.7304 11.8934 25.393 8.75008 22.2494C5.6066 19.1059 3.26915 15.4848 2.17502 12.0569C1.34729 9.46417 0.847699 5.72641 3.18515 2.65181C3.5316 2.19598 4.05663 1.89682 4.63274 1.83118L7.53184 1.48829C7.58653 1.48092 7.64122 1.47736 7.69234 1.47736C8.28299 1.47736 8.81923 1.86018 9.00514 2.4292L11.1749 9.13515C11.3827 9.77693 11.1894 10.4808 10.6789 10.9257L9.02317 12.3733C8.52002 12.8108 8.41776 13.5657 8.78253 14.1274C9.84378 15.7574 11.0617 17.2636 12.4 18.6018C13.7382 19.9401 15.2444 21.1583 16.8743 22.2193C17.4322 22.584 18.1871 22.4782 18.6285 21.9786L20.0761 20.3229C20.521 19.8124 21.2249 19.619 21.8666 19.8269L28.5726 21.9966C29.1897 22.1943 29.587 22.8142 29.5104 23.4669L29.5112 23.4676Z" fill="#57666C"/>
<path d="M16.7299 9.30072C19.4684 9.30072 21.6967 11.5288 21.6967 14.2675C21.6967 14.6761 22.0286 15.0042 22.4333 15.0042C22.8418 15.0042 23.1699 14.6722 23.1699 14.2675C23.1699 12.5462 22.4989 10.931 21.2845 9.7128C20.0666 8.49488 18.4511 7.82741 16.7298 7.82741C16.3213 7.82741 15.9932 8.15936 15.9932 8.56403C15.9932 8.969 16.3213 9.30066 16.7298 9.30066L16.7299 9.30072Z" fill="#57666C"/>
<path d="M16.7298 3.56789C22.6264 3.56789 27.4256 8.36683 27.4256 14.2637C27.4256 14.6722 27.7576 15.0003 28.1622 15.0003C28.5669 15.0003 28.8989 14.6684 28.8989 14.2637C28.8989 12.6189 28.5779 11.0255 27.9434 9.5268C27.3309 8.0792 26.4521 6.77728 25.3361 5.65782C24.2202 4.54187 22.9183 3.66303 21.4672 3.05052C19.9649 2.41612 18.3712 2.09509 16.7303 2.09509C16.3218 2.09509 15.9937 2.42705 15.9937 2.83172C15.9934 3.23617 16.3215 3.56815 16.7301 3.56815L16.7298 3.56789Z" fill="#57666C"/>
</svg>
