<svg width="40" height="40" viewBox="0 0 40 40" fill="none" xmlns="http://www.w3.org/2000/svg">
<path d="M36.5923 7.11698H34.24L34.2397 3.66006C34.2397 1.64223 32.5979 0.000355068 30.5799 0.000355068L9.41996 0C7.40213 0 5.76025 1.64179 5.76025 3.65971V7.11699H3.40792C1.52853 7.11699 0 8.64552 0 10.5249V29.4752C0 31.3546 1.52853 32.8831 3.40792 32.8831H5.76025V37.2976C5.76025 38.7879 6.97246 40 8.46263 40H31.5378C33.0281 40 34.2402 38.7878 34.2402 37.2976V32.8831H36.5925C38.4719 32.8831 40.0005 31.3546 40.0005 29.4752V10.5249C39.9997 8.64552 38.4712 7.11626 36.5922 7.11626L36.5923 7.11698ZM8.26056 3.66006C8.26056 3.02058 8.78038 2.50003 9.42059 2.50003H30.5815C31.221 2.50003 31.7415 3.02056 31.7415 3.66006V7.11734L8.26092 7.11699L8.26056 3.66006ZM31.7393 37.2984C31.7393 37.406 31.6449 37.5005 31.5373 37.5005H8.46211C8.35452 37.5005 8.26007 37.406 8.26007 37.2984V24.5446C8.26007 24.437 8.35452 24.3426 8.46211 24.3426H31.5373C31.6449 24.3426 31.7393 24.437 31.7393 24.5446V32.8837V37.2984ZM37.5 29.4753C37.5 29.9759 37.0927 30.3832 36.592 30.3832H34.2397L34.2394 24.5448C34.2394 23.0546 33.0272 21.8425 31.537 21.8425L8.46179 21.8421C6.97153 21.8421 5.75941 23.0543 5.75941 24.5445L5.75905 30.3835H3.40672C2.90608 30.3835 2.49881 29.9763 2.49881 29.4756V10.5254C2.49881 10.0247 2.90608 9.61746 3.40672 9.61746H36.5915C37.0922 9.61746 37.4994 10.0247 37.4994 10.5254L37.5 29.4753ZM34.2401 13.4383C34.2401 14.1285 33.6809 14.6885 32.9899 14.6885H27.4789C26.7886 14.6885 26.2287 14.1292 26.2287 13.4383C26.2287 12.7473 26.7879 12.1881 27.4789 12.1881H32.9899C33.6802 12.1881 34.2401 12.748 34.2401 13.4383Z" fill="#57666C"/>
</svg>
