<svg width="35" height="31" viewBox="0 0 35 31" fill="none" xmlns="http://www.w3.org/2000/svg">
<path d="M13.7819 28.3362C10.3461 26.8306 7.68243 24.051 6.33117 20.5379C5.63621 18.762 5.32744 16.8705 5.36615 15.0174L8.80202 15.8281L6.71741 6.98779L0 13.7824L3.93773 14.7089C3.82182 16.8708 4.1693 19.0326 4.98016 21.0788C6.48574 24.9393 9.41975 28.0277 13.2032 29.6876C15.2106 30.5754 17.3724 31.0001 19.457 31.0001C23.6263 31.0001 27.7183 29.3401 30.7295 26.213L29.687 25.2093C25.595 29.4557 19.1868 30.7298 13.7818 28.3364L13.7819 28.3362Z" fill="#57666C"/>
<path d="M18.8392 0C17.9126 0.038718 16.9477 0.154379 16.0596 0.38595L16.3299 1.58276C17.1792 1.38967 18.0285 1.274 18.9163 1.23528L18.8392 0Z" fill="#57666C"/>
<path d="M27.1782 2.04626C26.715 1.77597 26.2132 1.5444 25.7113 1.31285C25.3638 1.15847 24.9779 1.00409 24.5917 0.888184L24.167 2.04629C24.5145 2.1622 24.8619 2.31658 25.1707 2.47096C25.6339 2.66406 26.0973 2.89563 26.5219 3.16591L27.1782 2.04626Z" fill="#57666C"/>
<path d="M23.1635 0.424669C22.2369 0.193097 21.3104 0.0771862 20.3838 0L20.3066 1.23552C21.156 1.27424 22.0438 1.42862 22.8547 1.62147L23.1635 0.424669Z" fill="#57666C"/>
<path d="M30.9219 23.9348L31.8869 24.6682C32.4275 23.8961 32.9293 23.0855 33.3538 22.2749L32.2731 21.6958C31.8871 22.468 31.4237 23.2401 30.9219 23.9348V23.9348Z" fill="#57666C"/>
<path d="M14.3231 0.888041C13.5124 1.15833 12.7403 1.50581 12.0068 1.93047L12.5859 3.01135C13.2421 2.6254 13.9755 2.3164 14.7093 2.04634C14.7865 2.00762 14.8636 1.96914 14.9796 1.96914L14.5936 0.811036C14.4774 0.810791 14.4003 0.849264 14.3231 0.887984L14.3231 0.888041Z" fill="#57666C"/>
<path d="M33.4321 12.5468L34.6289 12.3152C34.4358 11.3886 34.1658 10.5008 33.8183 9.61279L32.6602 10.0375C32.9689 10.8483 33.2392 11.6977 33.4321 12.5468V12.5468Z" fill="#57666C"/>
<path d="M33.625 13.9362C33.6637 14.438 33.7022 14.9399 33.7022 15.4417C33.7022 15.7892 33.7022 16.1751 33.6635 16.5226L34.8603 16.5998C34.899 16.2139 34.899 15.8276 34.899 15.4417C34.899 14.9011 34.8603 14.3221 34.8218 13.7817L33.625 13.9362Z" fill="#57666C"/>
<path d="M30.6523 6.60173C31.1929 7.29669 31.6561 8.03016 32.0808 8.76356L33.1616 8.18451C32.737 7.33517 32.1966 6.563 31.6174 5.82959L30.6523 6.60173Z" fill="#57666C"/>
<path d="M32.8145 20.4219L33.9726 20.8466C34.32 19.9588 34.5516 19.0322 34.706 18.1442L33.5092 17.9126C33.3548 18.7619 33.1232 19.6113 32.8145 20.4219V20.4219Z" fill="#57666C"/>
<path d="M30.6142 4.7095C29.958 4.01455 29.2246 3.39701 28.4909 2.85645L27.7959 3.86017C28.4909 4.36203 29.1471 4.94105 29.7646 5.55884L30.6142 4.7095Z" fill="#57666C"/>
<path d="M25.4023 5.71333C25.0548 5.52023 24.5917 5.59742 24.3986 5.9449L24.0126 6.60115C23.8195 6.94863 23.8967 7.41178 24.2442 7.60487C24.3601 7.68206 24.4758 7.72078 24.6302 7.72078C24.8617 7.72078 25.132 7.60487 25.2479 7.3733L25.6339 6.71705C25.8657 6.36957 25.7498 5.94487 25.4023 5.71333Z" fill="#57666C"/>
<path d="M19.7266 4.09229C19.3019 4.09229 18.9932 4.40105 18.9932 4.82569V5.59787C18.9932 5.98382 19.3019 6.33128 19.7266 6.33128C20.1125 6.33128 20.46 6.02251 20.46 5.59787V4.82569C20.4602 4.40102 20.1127 4.09229 19.7266 4.09229Z" fill="#57666C"/>
<path d="M13.9755 5.4821C13.628 5.6752 13.5124 6.13834 13.7052 6.48582L14.0912 7.14207C14.2071 7.37364 14.4771 7.52802 14.7474 7.52802C14.8633 7.52802 14.979 7.4893 15.0949 7.45082C15.4424 7.25773 15.558 6.79458 15.3652 6.4471L14.9792 5.79086C14.7861 5.44337 14.323 5.28899 13.9755 5.48209L13.9755 5.4821Z" fill="#57666C"/>
<path d="M10.4621 19.6884L9.76712 20.0743C9.41963 20.2674 9.26525 20.7306 9.49683 21.0781C9.61274 21.3096 9.88278 21.464 10.1531 21.464C10.269 21.464 10.3846 21.4253 10.5006 21.3868L11.1955 21.0009C11.543 20.8078 11.6974 20.3446 11.4658 19.9972C11.2727 19.6112 10.8096 19.4568 10.4621 19.6884L10.4621 19.6884Z" fill="#57666C"/>
<path d="M13.5896 25.286C13.7055 25.3632 13.8211 25.4019 13.9755 25.4019C14.2071 25.4019 14.4774 25.286 14.5933 25.0544L14.9792 24.3982C15.1723 24.0507 15.0951 23.5876 14.7477 23.3945C14.4002 23.2014 13.937 23.2786 13.7439 23.6261L13.3577 24.2823C13.1262 24.6298 13.2421 25.0929 13.5896 25.286Z" fill="#57666C"/>
<path d="M19.3027 24.707C18.9168 24.707 18.5693 25.0158 18.5693 25.4404V26.2126C18.5693 26.5986 18.8781 26.946 19.3027 26.946C19.6887 26.946 20.0361 26.6373 20.0361 26.2126V25.4404C20.0364 25.0545 19.7274 24.707 19.3027 24.707C19.3415 24.707 19.3027 24.707 19.3027 24.707Z" fill="#57666C"/>
<path d="M24.0511 25.2476C24.167 25.4792 24.4371 25.6336 24.7074 25.6336C24.8233 25.6336 24.9389 25.5948 25.0548 25.5564C25.4023 25.3633 25.518 24.9001 25.3251 24.5526L24.9392 23.8964C24.7461 23.5489 24.2829 23.4333 23.9355 23.6261C23.588 23.8192 23.4723 24.2824 23.6652 24.6298L24.0511 25.2476Z" fill="#57666C"/>
<path d="M27.371 20.2676C27.1779 20.6151 27.2551 21.0782 27.6026 21.2713L28.2589 21.6573C28.3748 21.7345 28.4904 21.7732 28.6448 21.7732C28.8764 21.7732 29.1467 21.6573 29.2626 21.4257C29.4557 21.0782 29.3785 20.6151 29.031 20.422L28.3748 20.036C28.0273 19.8045 27.6026 19.9201 27.371 20.2676Z" fill="#57666C"/>
<path d="M30.1892 16.4458C30.6138 16.4458 30.9226 16.1371 30.9226 15.7124C30.9226 15.3265 30.6138 14.979 30.1892 14.979H29.417C29.031 14.979 28.6836 15.2878 28.6836 15.7124C28.6836 16.0984 28.9924 16.4458 29.417 16.4458H30.1892Z" fill="#57666C"/>
<path d="M27.5647 11.0799C27.6806 11.3114 27.9506 11.4658 28.2209 11.4658C28.3368 11.4658 28.4525 11.4271 28.5684 11.3886L29.2247 11.0027C29.5721 10.8096 29.6878 10.3464 29.495 9.99894C29.3019 9.65145 28.8387 9.53579 28.4912 9.72865L27.835 10.1146C27.4875 10.2692 27.3716 10.6939 27.5647 11.0799L27.5647 11.0799Z" fill="#57666C"/>
<path d="M24.244 9.38086L19.6888 14.4766L15.0561 10.3846L13.4346 12.1989L18.0285 16.291C18.1057 16.5226 18.2216 16.7541 18.4532 16.9472C18.7234 17.1788 19.0709 17.2947 19.4182 17.2947C19.8041 17.2947 20.1903 17.1403 20.4991 16.8316C20.7693 16.5613 20.885 16.1753 20.8465 15.7891C20.8465 15.6732 20.8078 15.5576 20.7693 15.4417L25.3248 10.3461L24.244 9.38086ZM19.3797 15.9051L19.4185 15.8663C19.4185 15.8666 19.4185 15.8666 19.3797 15.9051C19.4185 15.8666 19.4185 15.9051 19.3797 15.9051C19.4185 15.9051 19.3797 15.9051 19.3797 15.9051Z" fill="#57666C"/>
</svg>
