<svg width="22" height="18" viewBox="0 0 22 18" fill="none" xmlns="http://www.w3.org/2000/svg">
<path d="M21.1298 2.64502C20.3948 2.96002 19.5548 3.17002 18.7148 3.27502C19.5548 2.75002 20.2898 1.91003 20.6048 0.965028C19.7648 1.49003 18.9248 1.80503 17.8748 2.01503C17.1398 1.17503 15.9848 0.650024 14.8298 0.650024C12.5198 0.650024 10.6298 2.54002 10.6298 4.85002C10.6298 5.16502 10.6298 5.48002 10.7348 5.79502C7.2698 5.58502 4.1198 3.90502 2.0198 1.38502C1.7048 2.01502 1.4948 2.75002 1.4948 3.48502C1.4948 4.95502 2.2298 6.21502 3.3848 6.95002C2.6498 6.95002 2.0198 6.74002 1.4948 6.42502C1.4948 8.42002 2.9648 10.205 4.85479 10.52C4.53979 10.625 4.1198 10.625 3.6998 10.625C3.3848 10.625 3.1748 10.625 2.8598 10.52C3.3848 12.2 4.9598 13.46 6.8498 13.46C5.3798 14.615 3.5948 15.245 1.5998 15.245C1.2848 15.245 0.969805 15.245 0.549805 15.14C2.4398 16.295 4.6448 17.03 7.0598 17.03C14.8298 17.03 19.0298 10.625 19.0298 5.06002V4.53502C19.8698 4.22002 20.6048 3.48502 21.1298 2.64502Z" fill="white"/>
</svg>
