<svg width="16" height="24" viewBox="0 0 16 24" fill="none" xmlns="http://www.w3.org/2000/svg">
<path d="M14.5494 14.9325C15.1004 14.3815 15.1791 13.5944 14.7068 12.8073C14.3133 12.1777 13.6049 11.8628 12.8178 12.0203C12.503 12.099 12.1882 12.2564 11.8733 12.4925C9.43334 14.1454 6.12756 14.0667 3.68758 12.4138C3.53016 12.3351 3.37274 12.2564 3.21532 12.1777C2.34952 11.7841 1.48373 11.9415 1.01148 12.7286C0.460513 13.5157 0.539212 14.3815 1.24759 15.0899C1.40501 15.2473 1.56243 15.326 1.64114 15.4835L1.71985 15.5622C2.82178 16.428 4.15984 16.9789 5.89144 17.2151L4.86822 18.2383C4.00242 19.1041 3.05791 20.0486 2.19211 20.9144C1.95598 21.1505 1.64114 21.544 1.64114 22.095C1.64114 22.8034 2.03469 23.5118 2.74307 23.8266C2.9792 23.984 3.21532 23.984 3.45145 23.984C3.845 23.984 4.31725 23.8266 4.63209 23.4331C5.81272 22.2524 6.75724 21.3079 7.70175 20.3634C7.78046 20.2847 7.78045 20.2847 7.78045 20.2847C7.78045 20.2847 7.85916 20.2847 7.85916 20.3634C8.48883 21.0718 9.19722 21.7015 9.82689 22.4098C10.1417 22.7247 10.4566 23.0395 10.7714 23.3544C11.1649 23.7479 11.4798 23.9053 11.952 23.9053C12.6604 23.984 13.4475 23.5118 13.7623 22.8034C14.0772 22.1737 13.9198 21.3866 13.3688 20.9144C12.5817 20.1273 11.7946 19.2615 10.9288 18.4744L9.59076 17.1363C10.2991 17.0576 11.0862 16.9002 11.7946 16.5854C12.9753 16.1918 13.8411 15.6409 14.5494 14.9325Z" fill="white"/>
<path d="M7.78045 12.7286C11.1649 12.7286 13.9198 10.0525 13.9198 6.66802C13.9198 5.01513 13.2901 3.44096 12.1094 2.26032C10.9288 1.07969 9.43334 0.450012 7.85916 0.450012C4.47467 0.450012 1.79856 3.20483 1.71985 6.51061C1.71985 8.1635 2.34953 9.65897 3.53016 10.8396C4.63209 12.0989 6.12756 12.7286 7.78045 12.7286ZM6.04885 4.85772C6.5211 4.38547 7.15077 4.14934 7.78045 4.14934C9.19721 4.14934 10.2204 5.25127 10.2204 6.58932C10.2204 8.00608 9.1185 9.02929 7.78045 9.02929C6.36368 9.02929 5.34047 7.92737 5.34047 6.58932C5.34047 5.95965 5.5766 5.32998 6.04885 4.85772Z" fill="white"/>
<path d="M14.5494 14.9325C15.1004 14.3815 15.1791 13.5944 14.7068 12.8073C14.3133 12.1777 13.6049 11.8628 12.8178 12.0203C12.503 12.099 12.1882 12.2564 11.8733 12.4925C9.43334 14.1454 6.12756 14.0667 3.68758 12.4138C3.53016 12.3351 3.37274 12.2564 3.21532 12.1777C2.34952 11.7841 1.48373 11.9415 1.01148 12.7286C0.460513 13.5157 0.539212 14.3815 1.24759 15.0899C1.40501 15.2473 1.56243 15.326 1.64114 15.4835L1.71985 15.5622C2.82178 16.428 4.15984 16.9789 5.89144 17.2151L4.86822 18.2383C4.00242 19.1041 3.05791 20.0486 2.19211 20.9144C1.95598 21.1505 1.64114 21.544 1.64114 22.095C1.64114 22.8034 2.03469 23.5118 2.74307 23.8266C2.9792 23.984 3.21532 23.984 3.45145 23.984C3.845 23.984 4.31725 23.8266 4.63209 23.4331C5.81272 22.2524 6.75724 21.3079 7.70175 20.3634C7.78046 20.2847 7.78045 20.2847 7.78045 20.2847C7.78045 20.2847 7.85916 20.2847 7.85916 20.3634C8.48883 21.0718 9.19722 21.7015 9.82689 22.4098C10.1417 22.7247 10.4566 23.0395 10.7714 23.3544C11.1649 23.7479 11.4798 23.9053 11.952 23.9053C12.6604 23.984 13.4475 23.5118 13.7623 22.8034C14.0772 22.1737 13.9198 21.3866 13.3688 20.9144C12.5817 20.1273 11.7946 19.2615 10.9288 18.4744L9.59076 17.1363C10.2991 17.0576 11.0862 16.9002 11.7946 16.5854C12.9753 16.1918 13.8411 15.6409 14.5494 14.9325Z" fill="white"/>
</svg>
