<svg width="23" height="23" viewBox="0 0 23 23" fill="none" xmlns="http://www.w3.org/2000/svg">
<path d="M19.3232 3.66564C17.2488 1.59845 14.4829 0.450012 11.5634 0.450012C5.4939 0.450012 0.576828 5.35001 0.576828 11.3984C0.576828 13.3125 1.11463 15.2266 2.03659 16.8344L0.5 22.5L6.33903 20.9688C7.95244 21.8109 9.71951 22.2703 11.5634 22.2703C17.6329 22.2703 22.55 17.3703 22.55 11.3219C22.4732 8.48908 21.3976 5.73282 19.3232 3.66564ZM16.8646 15.3031C16.6341 15.9156 15.5585 16.5281 15.0207 16.6047C14.5598 16.6813 13.9451 16.6813 13.3305 16.5281C12.9463 16.375 12.4085 16.2219 11.7939 15.9156C9.02805 14.7672 7.26098 12.0109 7.10732 11.7813C6.95366 11.6281 5.95488 10.3266 5.95488 8.94845C5.95488 7.57032 6.64634 6.95782 6.87683 6.65157C7.10732 6.34532 7.41463 6.34532 7.64512 6.34532C7.79878 6.34532 8.02927 6.34532 8.18292 6.34532C8.33658 6.34532 8.56707 6.26876 8.79756 6.8047C9.02805 7.34064 9.56585 8.71876 9.64268 8.79532C9.71951 8.94845 9.71951 9.10157 9.64268 9.2547C9.56585 9.40782 9.48902 9.56095 9.33536 9.71407C9.1817 9.8672 9.02805 10.0969 8.95122 10.1734C8.79756 10.3266 8.6439 10.4797 8.79756 10.7094C8.95122 11.0156 9.48902 11.8578 10.3341 12.6234C11.4098 13.5422 12.2549 13.8485 12.5622 14.0016C12.8695 14.1547 13.0232 14.0781 13.1768 13.925C13.3305 13.7719 13.8683 13.1594 14.022 12.8531C14.1756 12.5469 14.4061 12.6234 14.6366 12.7C14.8671 12.7766 16.25 13.4656 16.4805 13.6188C16.7878 13.7719 16.9415 13.8484 17.0183 13.925C17.0951 14.1547 17.0951 14.6906 16.8646 15.3031Z" fill="white"/>
</svg>
